<svg xmlns="http://www.w3.org/2000/svg" viewBox="0 0 24 24" width="24" height="24"
    fill="rgb(138 138 138)">
    <path fill-rule="evenodd"
        d="M6.204 15.817a8.872 8.872 0 01-.066.115h11.724a8.535 8.535 0 01-.066-.115c-.92-1.627-1.463-3.806-1.463-6.6 0-2.279-1.932-4.142-4.333-4.142-2.401 0-4.333 1.863-4.333 4.143 0 2.793-.543 4.972-1.463 6.6zM20 17.932H4c-.998 0-1.38-1.301-.54-1.841.201-.13.586-.522 1.003-1.258.746-1.32 1.204-3.158 1.204-5.615 0-3.401 2.843-6.143 6.333-6.143s6.333 2.742 6.333 6.143c0 2.457.458 4.296 1.204 5.615.417.736.802 1.128 1.004 1.258.84.54.457 1.841-.541 1.841zm-7.063 1.346a1 1 0 111.714 1.031A3.09 3.09 0 0112 21.79a3.09 3.09 0 01-2.651-1.48 1 1 0 011.714-1.032c.188.314.545.512.937.512s.748-.198.937-.512z"
        clip-rule="evenodd"></path>
</svg>