<svg width="62.4" height="70.2" viewBox="0 0 66 74" fill="none" xmlns="http://www.w3.org/2000/svg"
    class="absolute z-base-1 transition duration-500 ease-in-out group-hover:opacity-0"
    style="left: 4.8px; top: 0.9px;">
    <path
        d="M30 2.73205C31.8564 1.66025 34.1436 1.66025 36 2.73205L61.1769 17.2679C63.0333 18.3397 64.1769 20.3205 64.1769 22.4641V51.5359C64.1769 53.6795 63.0333 55.6603 61.1769 56.7321L36 71.2679C34.1436 72.3397 31.8564 72.3397 30 71.2679L4.82309 56.7321C2.96668 55.6603 1.82309 53.6795 1.82309 51.5359V22.4641C1.82309 20.3205 2.96668 18.3397 4.82309 17.2679L30 2.73205Z"
        fill="currentColor"
        class="rounded-[2px] text-white opacity-[0.85] dark:text-black dark:opacity-50"></path>
    <path
        d="M30 2.73205C31.8564 1.66025 34.1436 1.66025 36 2.73205L61.1769 17.2679C63.0333 18.3397 64.1769 20.3205 64.1769 22.4641V51.5359C64.1769 53.6795 63.0333 55.6603 61.1769 56.7321L36 71.2679C34.1436 72.3397 31.8564 72.3397 30 71.2679L4.82309 56.7321C2.96668 55.6603 1.82309 53.6795 1.82309 51.5359V22.4641C1.82309 20.3205 2.96668 18.3397 4.82309 17.2679L30 2.73205Z"
        fill="none" stroke="currentColor" stroke-width="3.5"
        class="text-gray-4 dark:text-dark-gray-4"></path>
</svg>