<svg xmlns="http://www.w3.org/2000/svg" viewBox="0 0 24 24" width="1em" height="1em"
    fill="#fff" class="h-[18px] w-[18px] text-white">
    <path fill-rule="evenodd"
        d="M18.48 17.5h-2.204a5 5 0 01-4.31-2.466l-.625-1.061-.624 1.061a5 5 0 01-4.31 2.466H2.661a1 1 0 110-2h3.746a3 3 0 002.586-1.48L10.181 12 8.993 9.98A3 3 0 006.407 8.5H2.661a1 1 0 110-2h3.746a5 5 0 014.31 2.466l.624 1.061.624-1.061a5 5 0 014.31-2.466h2.205V4.315a.5.5 0 01.874-.332l2.536 2.853a1 1 0 010 1.328l-2.536 2.853a.5.5 0 01-.874-.332V8.5h-2.204a3 3 0 00-2.587 1.48L12.501 12l1.188 2.02a3 3 0 002.587 1.48h2.204v-2.185a.5.5 0 01.874-.332l2.83 3.185a.5.5 0 010 .664l-2.83 3.185a.5.5 0 01-.874-.332V17.5z"
        clip-rule="evenodd"></path>
</svg>