<svg xmlns="http://www.w3.org/2000/svg" viewBox="0 0 24 24" width="1em" height="1em"
    fill="rgb(10 132 255)" class="h-5 w-5 text-blue dark:text-dark-blue">
    <path
        d="M15.207 11.293a1 1 0 010 1.414l-3.5 3.5a1 1 0 01-1.414 0l-2-2a1 1 0 111.414-1.414L11 14.086l2.793-2.793a1 1 0 011.414 0z"></path>
    <path
        d="M4 5a3 3 0 013-3h7.039a3 3 0 012.342 1.126l2.962 3.701A3 3 0 0120 8.702V19a3 3 0 01-3 3H7a3 3 0 01-3-3V5zm3-1a1 1 0 00-1 1v14a1 1 0 001 1h10a1 1 0 001-1V9h-3a2 2 0 01-2-2V4H7zm8 .6V7h1.92L15 4.6z"></path>
</svg>