<svg width="237" height="77" viewBox="0 0 237 77" fill="none" xmlns="http://www.w3.org/2000/svg">
    <path opacity="0.1"
        d="M0 5C0 2.23858 2.23858 0 5 0H232C234.761 0 237 2.23858 237 5V72C237 74.7614 234.761 77 232 77H5C2.23858 77 0 74.7614 0 72V5Z"
        fill="#FFA116" />
    <mask id="mask0_7195_101442" style="mask-type:alpha" maskUnits="userSpaceOnUse" x="0" y="0"
        width="237" height="77">
        <path
            d="M0 5C0 2.23858 2.23858 0 5 0H232C234.761 0 237 2.23858 237 5V72C237 74.7614 234.761 77 232 77H5C2.23858 77 0 74.7614 0 72V5Z"
            fill="white" />
    </mask>
    <g mask="url(#mask0_7195_101442)">
        <path opacity="0.06" fill-rule="evenodd" clip-rule="evenodd"
            d="M188.5 64.2222C131.859 45.7638 76.3333 64.8403 43 84L237 84V48.624C224.03 63.1089 207.341 70.362 188.5 64.2222Z"
            fill="#FFA116" />
        <path opacity="0.04" fill-rule="evenodd" clip-rule="evenodd"
            d="M142.634 -5C140.941 -5 139.352 -4.15101 138.488 -2.69573C134.641 3.78369 131.575 11.4057 129.5 20.3402C118.591 67.3063 99.7561 73.3384 70.6543 82.6589C69.9041 82.8992 70.0768 84 70.8645 84H232C234.761 84 237 81.7614 237 79V0C237 -2.76142 234.761 -5 232 -5H142.634Z"
            fill="#FFA116" />
    </g>
</svg>